PathFileType	4	(X/Y/Z)	/Users/itak/Documents/Research/Walk-IL/dataset/trc/00432_00167.trc
DataRate	CameraRate	NumFrames	NumMarkers	Units	OrigDataRate	OrigDataStartFrame	OrigNumFrames
100.000000	100.000000	4	53	mm	100.000000	86	693
Frame#	Time	RPSI			LPSI			L3			STRN			T10			C7			CLAV			RBAK			LBAK			LSHO			LUPA			LAEL			LAOL			LWTS			LWPS			LFRA			LIFD			LHPS			LHTS			RSHO			RUPA			RAEL			RAOL			RWTS			RWPS			RFRA			RIFD			RHTS			RHPS			RBHD			LFHD			RFHD			LBHD			LHIP			RHIP			RASI			LASI			LKNE			LTHI			LANK			LTIP			LTOE			LMT1			LMT5			LHEE			RKNE			RTHI			RANK			RTIP			RTOE			RMT1			RMT5			RHEE			
		X1	Y1	Z1	X2	Y2	Z2	X3	Y3	Z3	X4	Y4	Z4	X5	Y5	Z5	X6	Y6	Z6	X7	Y7	Z7	X8	Y8	Z8	X9	Y9	Z9	X10	Y10	Z10	X11	Y11	Z11	X12	Y12	Z12	X13	Y13	Z13	X14	Y14	Z14	X15	Y15	Z15	X16	Y16	Z16	X17	Y17	Z17	X18	Y18	Z18	X19	Y19	Z19	X20	Y20	Z20	X21	Y21	Z21	X22	Y22	Z22	X23	Y23	Z23	X24	Y24	Z24	X25	Y25	Z25	X26	Y26	Z26	X27	Y27	Z27	X28	Y28	Z28	X29	Y29	Z29	X30	Y30	Z30	X31	Y31	Z31	X32	Y32	Z32	X33	Y33	Z33	X34	Y34	Z34	X35	Y35	Z35	X36	Y36	Z36	X37	Y37	Z37	X38	Y38	Z38	X39	Y39	Z39	X40	Y40	Z40	X41	Y41	Z41	X42	Y42	Z42	X43	Y43	Z43	X44	Y44	Z44	X45	Y45	Z45	X46	Y46	Z46	X47	Y47	Z47	X48	Y48	Z48	X49	Y49	Z49	X50	Y50	Z50	X51	Y51	Z51	X52	Y52	Z52	X53	Y53	Z53	

87	0.86	-1180.745727539062	977.21044921875	-447.5892944335938	-1112.897338867188	974.9453125	-571.6593627929688	-1140.534545898438	1069.8896484375	-488.8931274414062	-887.5291137695312	1251.247314453125	-382.7618713378906	-1151.7216796875	1194.846801757812	-499.5039978027344	-1085.664306640625	1459.8720703125	-461.8999633789062	-913.976318359375	1366.533325195312	-402.2843627929688	-1188.239379882812	1345.504760742188	-400.3957824707031	-1079.458618164062	1413.33544921875	-564.481689453125	-952.264892578125	1425.719360351562	-597.2461547851562	-934.6283569335938	1307.988037109375	-695.093017578125	-912.7584228515625	1094.09326171875	-725.8175659179688	-1011.670288085938	1084.469116210938	-695.8696899414062	-857.3577270507812	891.603515625	-659.4852905273438	-881.3943481445312	875.8878173828125	-728.2772827148438	-891.9873657226562	1006.415466308594	-728.9059448242188	-854.8321533203125	722.3182983398438	-660.865234375	-876.575439453125	794.9091796875	-724.5238037109375	-840.4524536132812	801.8966674804688	-662.938232421875	-1085.462036132812	1428.80615234375	-286.6801147460938	-1134.327758789062	1370.17529296875	-222.5458221435547	-1166.576416015625	1082.993896484375	-174.2558288574219	-1203.133178710938	1067.825927734375	-229.3305816650391	-1059.03271484375	882.5618286132812	-173.1818084716797	-1143.31201171875	865.3571166992188	-153.5639495849609	-1167.726806640625	1024.717163085938	-164.4458923339844	-1059.044189453125	722.6388549804688	-167.7329406738281	-1050.37158203125	782.2166748046875	-157.2247161865234	-1125.852294921875	779.7467041015625	-147.9756317138672	-1035.4228515625	1652.286376953125	-352.6991882324219	-843.1204223632812	1657.85693359375	-431.427734375	-902.1600952148438	1658.579467773438	-314.3507385253906	-969.2484130859375	1656.800415039062	-518.2760620117188	-945.4708862304688	860.1373901367188	-611.0340576171875	-1151.488403320312	865.703857421875	-270.8097229003906	-1028.243896484375	899.6521606445312	-275.9706726074219	-891.220703125	894.8917846679688	-496.3087158203125	-981.9730834960938	436.6251220703125	-565.0823974609375	-945.4893798828125	587.5084838867188	-581.80908203125	-1066.599365234375	34.599609375	-577.9320068359375	-992.5175170898438	283.2680969238281	-570.7493286132812	-897.8980102539062	42.29055023193359	-413.1252746582031	-976.291015625	50.14765930175781	-425.1693420410156	-924.755615234375	45.47707366943359	-526.2033081054688	-1137.38427734375	38.42808151245117	-557.37451171875	-1129.154663085938	467.3872985839844	-296.267822265625	-1123.4736328125	726.9880981445312	-244.9365997314453	-1166.992919921875	43.89898300170898	-318.17919921875	-1139.763305664062	321.3089904785156	-285.9259643554688	-953.4163818359375	48.83884811401367	-276.2148132324219	-996.426025390625	53.64349365234375	-334.0421142578125	-1054.515747070312	49.23417282104492	-242.9185943603516	-1210.056030273438	35.33684158325195	-387.615478515625	
88	0.87	-1180.747192382812	977.2380981445312	-447.4398498535156	-1112.88134765625	974.9727172851562	-571.5347290039062	-1140.469482421875	1069.943603515625	-488.7742614746094	-887.3487548828125	1251.17724609375	-382.6844482421875	-1151.632446289062	1194.913940429688	-499.2859497070312	-1085.408081054688	1459.89599609375	-461.7316589355469	-913.7850341796875	1366.463989257812	-402.1909484863281	-1188.065551757812	1345.534912109375	-400.1619262695312	-1079.297485351562	1413.375	-564.2943115234375	-952.0741577148438	1425.665405273438	-597.1248168945312	-934.5655517578125	1307.973266601562	-694.9734497070312	-912.7483520507812	1094.063842773438	-725.6777954101562	-1011.678039550781	1084.376220703125	-695.7821044921875	-857.2172241210938	891.6253051757812	-659.204345703125	-881.2573852539062	875.8592529296875	-728.0232543945312	-891.9284057617188	1006.362854003906	-728.737060546875	-854.5537719726562	722.3322143554688	-660.463134765625	-876.4108276367188	794.8377075195312	-724.1981811523438	-840.1781616210938	802.0021362304688	-662.7102661132812	-1085.203491210938	1428.7998046875	-286.5090942382812	-1134.057861328125	1370.19384765625	-222.3430023193359	-1166.352294921875	1083.034423828125	-174.0614624023438	-1202.9443359375	1067.873901367188	-229.09912109375	-1058.857788085938	882.5863647460938	-173.0593566894531	-1143.116088867188	865.36865234375	-153.4114379882812	-1167.488037109375	1024.7685546875	-164.260498046875	-1058.835693359375	722.6486206054688	-167.6217956542969	-1050.154541015625	782.2350463867188	-157.1224975585938	-1125.666259765625	779.7656860351562	-147.7883911132812	-1035.096801757812	1652.276733398438	-352.5546569824219	-842.743408203125	1657.690551757812	-431.3924560546875	-901.7047729492188	1658.512451171875	-314.2565307617188	-968.9158935546875	1656.750610351562	-518.1220092773438	-945.5110473632812	860.1403198242188	-611.0029296875	-1151.480102539062	865.6918334960938	-270.6980895996094	-1028.196655273438	899.6493530273438	-275.8994445800781	-891.1993408203125	894.8646850585938	-496.2383728027344	-982.008056640625	436.6500854492188	-565.052490234375	-945.521240234375	587.4962158203125	-581.8019409179688	-1066.609130859375	34.60551071166992	-577.9256591796875	-992.6006469726562	283.3026428222656	-570.7424926757812	-897.8936767578125	42.28978729248047	-413.1312866210938	-976.2783203125	50.14049911499023	-425.1769714355469	-924.7595825195312	45.48300170898438	-526.196533203125	-1137.402954101562	38.43210220336914	-557.3447875976562	-1129.177978515625	467.3724365234375	-296.1951904296875	-1123.449584960938	726.9703979492188	-244.8782653808594	-1166.997314453125	43.88736724853516	-318.1809997558594	-1139.7724609375	321.2927856445312	-285.8865661621094	-953.4205932617188	48.83792495727539	-276.2167358398438	-996.4268798828125	53.64656829833984	-334.0421142578125	-1054.52001953125	49.23218154907227	-242.9214324951172	-1210.060546875	35.33312225341797	-387.6084594726562	
89	0.88	-1180.7578125	977.25927734375	-447.275146484375	-1112.86572265625	974.990478515625	-571.4136352539062	-1140.408081054688	1069.987426757812	-488.660400390625	-887.176513671875	1251.100708007812	-382.6081848144531	-1151.55126953125	1194.961059570312	-499.0711364746094	-1085.16943359375	1459.915649414062	-461.5704956054688	-913.6005249023438	1366.392822265625	-402.0841064453125	-1187.896850585938	1345.568115234375	-399.9299621582031	-1079.136474609375	1413.411010742188	-564.108642578125	-951.8956298828125	1425.614135742188	-597.008544921875	-934.5064086914062	1307.960327148438	-694.8523559570312	-912.75732421875	1094.028564453125	-725.52880859375	-1011.716491699219	1084.285522460938	-695.6858520507812	-857.0839233398438	891.6362915039062	-658.9260864257812	-881.1323852539062	875.8313598632812	-727.7651977539062	-891.9049682617188	1006.307373046875	-728.5684204101562	-854.3230590820312	722.3349609375	-660.0575561523438	-876.3041381835938	794.76318359375	-723.8892822265625	-839.9310913085938	802.0942993164062	-662.4778442382812	-1084.973754882812	1428.78955078125	-286.3369750976562	-1133.8095703125	1370.203002929688	-222.1454162597656	-1166.147338867188	1083.067626953125	-173.8606872558594	-1202.782104492188	1067.9111328125	-228.8548889160156	-1058.685546875	882.61328125	-172.9262542724609	-1142.923706054688	865.3809814453125	-153.2376403808594	-1167.266723632812	1024.811889648438	-164.0710601806641	-1058.608764648438	722.656005859375	-167.4917449951172	-1049.930908203125	782.2560424804688	-156.9964141845703	-1125.478637695312	779.7805786132812	-147.5858612060547	-1034.740356445312	1652.242065429688	-352.3846130371094	-842.3896484375	1657.518310546875	-431.3633422851562	-901.285400390625	1658.441162109375	-314.1734008789062	-968.5883178710938	1656.7060546875	-517.9675903320312	-945.5511474609375	860.14404296875	-610.9642944335938	-1151.46875	865.6786499023438	-270.5864562988281	-1028.142211914062	899.6500854492188	-275.81591796875	-891.185302734375	894.8306274414062	-496.1560974121094	-982.0341186523438	436.6717834472656	-565.013671875	-945.5468139648438	587.4896240234375	-581.7924194335938	-1066.617553710938	34.61128234863281	-577.919677734375	-992.6835327148438	283.3389587402344	-570.7271728515625	-897.8905029296875	42.2889289855957	-413.1354064941406	-976.2724609375	50.13111114501953	-425.1784057617188	-924.7645263671875	45.48977661132812	-526.18896484375	-1137.427368164062	38.4377555847168	-557.3017578125	-1129.1953125	467.3585815429688	-296.1210327148438	-1123.425415039062	726.946044921875	-244.8105773925781	-1167.003295898438	43.87759780883789	-318.1781005859375	-1139.779052734375	321.2757568359375	-285.8448486328125	-953.42578125	48.83715438842773	-276.2188110351562	-996.4273071289062	53.64958572387695	-334.040771484375	-1054.525146484375	49.23105239868164	-242.9247131347656	-1210.065185546875	35.32960510253906	-387.6024475097656	
90	0.89	-1180.775146484375	977.2757568359375	-447.0971984863281	-1112.849853515625	975.0001220703125	-571.2962036132812	-1140.350952148438	1070.021728515625	-488.5478210449219	-887.013916015625	1251.018676757812	-382.5317077636719	-1151.4775390625	1194.989990234375	-498.8662109375	-1084.9482421875	1459.9287109375	-461.4154357910156	-913.4220581054688	1366.3212890625	-401.9663696289062	-1187.727172851562	1345.60986328125	-399.7092895507812	-1078.974975585938	1413.4443359375	-563.9256591796875	-951.7329711914062	1425.567993164062	-596.8983764648438	-934.4482421875	1307.947021484375	-694.7289428710938	-912.7837524414062	1093.985595703125	-725.3712768554688	-1011.778503417969	1084.203735351562	-695.5780029296875	-856.9618530273438	891.6360473632812	-658.6605224609375	-881.02392578125	875.8057250976562	-727.50634765625	-891.9161376953125	1006.250793457031	-728.4005126953125	-854.1568603515625	722.3272705078125	-659.6585693359375	-876.2578735351562	794.69091796875	-723.597900390625	-839.7310180664062	802.1640014648438	-662.2318115234375	-1084.769287109375	1428.776733398438	-286.1650695800781	-1133.580444335938	1370.20458984375	-221.9549560546875	-1165.960815429688	1083.094360351562	-173.6538848876953	-1202.643798828125	1067.937866210938	-228.6017761230469	-1058.513793945312	882.641845703125	-172.7845916748047	-1142.734130859375	865.3960571289062	-153.0439300537109	-1167.064453125	1024.84716796875	-163.8785705566406	-1058.370727539062	722.661376953125	-167.3454132080078	-1049.705810546875	782.2777709960938	-156.8491668701172	-1125.287841796875	779.7919311523438	-147.3739471435547	-1034.350463867188	1652.1845703125	-352.18896484375	-842.0636596679688	1657.347778320312	-431.3359069824219	-900.9008178710938	1658.364624023438	-314.0999145507812	-968.27490234375	1656.670043945312	-517.8158569335938	-945.5921020507812	860.14892578125	-610.9178466796875	-1151.452392578125	865.663818359375	-270.4757080078125	-1028.080688476562	899.65234375	-275.7183227539062	-891.1754760742188	894.791748046875	-496.0630187988281	-982.0502319335938	436.689208984375	-564.9634399414062	-945.565673828125	587.4878540039062	-581.7792358398438	-1066.624755859375	34.6174201965332	-577.9134521484375	-992.7639770507812	283.3724060058594	-570.7012329101562	-897.8887939453125	42.28821563720703	-413.1373291015625	-976.2728881835938	50.11881637573242	-425.1737670898438	-924.771728515625	45.49784088134766	-526.179443359375	-1137.457641601562	38.44466018676758	-557.2465209960938	-1129.208862304688	467.3445434570312	-296.0480651855469	-1123.399169921875	726.91455078125	-244.7350769042969	-1167.011962890625	43.87050247192383	-318.16943359375	-1139.784790039062	321.2581481933594	-285.8023376464844	-953.4320068359375	48.83671188354492	-276.22119140625	-996.4280395507812	53.65193939208984	-334.0378723144531	-1054.53125	49.23101806640625	-242.9274444580078	-1210.069946289062	35.3250846862793	-387.5971069335938	
